#!OML:ASF X:\für Bonn\!DataBase\2005_08_10_Bjorn_Final\c3d\bjorn.ASF
:FULLY-SPECIFIED
:DEGREES
107
root 2.27788 17.6405 0.296842 -210.315 0.551099 178.615
lowerback 9.19409 -3.07687 3.63072
upperback 17.6694 -0.135955 -0.517432
thorax 14.2747 2.16919 -2.15407
lowerneck -0.112761 7.20134 -1.53045
upperneck 6.64743 9.64556 -14.6145
head 2.64291 3.94442 -3.9141
rclavicle 3.97569e-015 5.96354e-015
rhumerus -18.8297 12.4399 -64.3662
rradius 52.6233
rwrist -2.49331
rhand -14.3557 21.7144
rfingers 7.12502
rthumb 11.7861 -7.93396
lclavicle 3.97569e-015 5.96354e-015
lhumerus -31.6283 -39.0449 75.0009
lradius 75.9045
lwrist 7.73106
lhand -49.7877 -23.3049
lfingers 7.12502
lthumb -22.3853 5.41807
rfemur 16.4938 -3.03819 16.3838
rtibia 44.9846
rfoot -24.2901 22.192
rtoes 1.13808
lfemur -29.5232 11.9524 -17.7183
ltibia 36.1053
lfoot -2.5307 1.54271
ltoes -23.4905
108
root 2.26838 17.664 0.36186 -209.629 0.265579 178.56
lowerback 9.4304 -3.06493 3.42853
upperback 17.5823 -0.108991 -0.571637
thorax 14.0212 2.14965 -2.10992
lowerneck -0.466348 7.21344 -1.53417
upperneck 6.57365 9.69471 -14.7362
head 2.69009 3.95806 -3.93598
rclavicle 3.57812e-015 -3.97569e-016
rhumerus -18.9585 12.8045 -64.5209
rradius 51.8003
rwrist -2.0464
rhand -14.5524 21.7008
rfingers 7.12502
rthumb 11.5964 -7.95832
lclavicle 3.57812e-015 -3.97569e-016
lhumerus -31.2554 -39.9104 74.5615
lradius 76.4605
lwrist 7.94832
lhand -50.0869 -24.4291
lfingers 7.12502
lthumb -22.6725 4.25904
rfemur 15.4418 -3.17809 16.2628
rtibia 45.1927
rfoot -24.2434 21.9929
rtoes 0.717451
lfemur -28.6774 11.6889 -18.0352
ltibia 36.9206
lfoot -2.15644 -0.247323
ltoes -23.0822
109
root 2.25773 17.6865 0.427362 -208.922 0.0148136 178.514
lowerback 9.66739 -3.04492 3.26662
upperback 17.4725 -0.0821332 -0.624139
thorax 13.7394 2.13057 -2.0879
lowerneck -0.835568 7.24072 -1.54758
upperneck 6.58173 9.77322 -14.8193
head 2.76422 3.98038 -3.94209
rclavicle -1.39149e-015 -1.82882e-014
rhumerus -19.1535 13.1696 -64.7185
rradius 51.0538
rwrist -1.79487
rhand -14.6449 21.597
rfingers 7.12502
rthumb 11.5072 -8.06711
lclavicle -1.39149e-015 -1.82882e-014
lhumerus -31.0006 -40.7141 74.1796
lradius 77.0437
lwrist 8.44862
lhand -50.296 -25.477
lfingers 7.12502
lthumb -22.8732 3.18647
rfemur 14.3508 -3.28572 16.1832
rtibia 45.4222
rfoot -24.1744 21.8049
rtoes 0.517655
lfemur -27.8458 11.4389 -18.308
ltibia 37.7987
lfoot -1.8179 -1.94872
ltoes -22.2963
110
root 2.24666 17.7093 0.491128 -208.232 -0.181762 178.455
lowerback 9.90734 -3.01031 3.13273
upperback 17.3611 -0.036675 -0.68586
thorax 13.457 2.12498 -2.09134
lowerneck -1.19108 7.27058 -1.63559
upperneck 6.58065 9.85273 -14.8024
head 2.82501 4.00769 -3.90661
rclavicle -4.96962e-016 4.77083e-015
rhumerus -19.415 13.4781 -64.9974
rradius 50.3654
rwrist -1.62635
rhand -14.6693 21.4217
rfingers 7.12502
rthumb 11.4837 -8.24375
lclavicle -4.96962e-016 4.77083e-015
lhumerus -30.8581 -41.4259 73.8239
lradius 77.6883
lwrist 8.88948
lhand -50.5185 -26.1521
lfingers 7.12502
lthumb -23.0867 2.48482
rfemur 13.2745 -3.34828 16.1139
rtibia 45.6533
rfoot -24.1246 21.6225
rtoes 0.201483
lfemur -26.9822 11.2024 -18.5327
ltibia 38.7617
lfoot -1.5624 -3.41817
ltoes -20.7152
111
root 2.23491 17.7324 0.553124 -207.526 -0.315277 178.402
lowerback 10.1246 -2.94168 3.0654
upperback 17.2168 0.039666 -0.755715
thorax 13.1504 2.13661 -2.14258
lowerneck -1.45133 7.28788 -1.69856
upperneck 6.59192 9.90859 -14.7444
head 2.87064 4.02979 -3.86686
rclavicle -2.68359e-015 -4.77083e-015
rhumerus -19.7817 13.6971 -65.3736
rradius 49.5962
rwrist -1.35289
rhand -14.8021 21.3045
rfingers 7.12502
rthumb 11.3557 -8.36801
lclavicle -2.68359e-015 -4.77083e-015
lhumerus -30.8547 -42.094 73.5247
lradius 78.3284
lwrist 9.3114
lhand -50.7247 -26.5276
lfingers 7.12502
lthumb -23.2845 2.08444
rfemur 12.1835 -3.38788 16.0695
rtibia 45.8667
rfoot -24.0398 21.4335
rtoes -0.138813
lfemur -26.1301 11.041 -18.7112
ltibia 39.822
lfoot -1.31645 -4.85644
ltoes -17.6205
112
root 2.22296 17.7582 0.613927 -206.822 -0.358863 178.35
lowerback 10.3335 -2.85323 3.02621
upperback 17.0649 0.1352 -0.81004
thorax 12.8425 2.15732 -2.19295
lowerneck -1.73195 7.30899 -1.8245
upperneck 6.6683 9.9758 -14.6512
head 2.93514 4.05019 -3.80482
rclavicle -2.5842e-015 0
rhumerus -20.1961 13.8886 -65.7972
rradius 48.8408
rwrist -1.12067
rhand -14.9299 21.1804
rfingers 7.12502
rthumb 11.2324 -8.4989
lclavicle -2.5842e-015 0
lhumerus -31.084 -42.5866 73.3372
lradius 79.0167
lwrist 9.79882
lhand -50.6372 -26.8758
lfingers 7.12502
lthumb -23.2005 1.74685
rfemur 11.1092 -3.34619 16.0744
rtibia 46.0202
rfoot -23.9245 21.2433
rtoes -0.415557
lfemur -25.2957 10.9209 -18.8285
ltibia 40.9907
lfoot -1.07219 -5.99039
ltoes -13.3202
113
root 2.21143 17.7908 0.673908 -206.083 -0.398107 178.316
lowerback 10.4915 1.97502 3.88416
upperback 16.8984 -0.980914 0.235509
thorax 12.6683 -1.60095 -2.25265
lowerneck -1.92638 7.31924 -1.94447
upperneck 6.74269 10.0191 -14.5564
head 2.98284 4.06208 -3.74747
rclavicle -4.77083e-015 -7.95139e-016
rhumerus -20.7127 14.0336 -66.2933
rradius 48.1537
rwrist -0.982573
rhand -14.973 21.0731
rfingers 7.12502
rthumb 11.1908 -8.6085
lclavicle -4.77083e-015 -7.95139e-016
lhumerus -31.5442 -42.8998 73.2493
lradius 79.7641
lwrist 10.1304
lhand -50.379 -26.9655
lfingers 7.12502
lthumb -22.9528 1.68808
rfemur 10.0389 -3.3068 16.1058
rtibia 46.0962
rfoot -23.7697 21.0367
rtoes -0.752401
lfemur -24.5307 10.8376 -18.9257
ltibia 42.256
lfoot -1.06136 -6.78399
ltoes -9.70389
114
root 2.20119 17.8343 0.732944 -205.307 -0.437715 178.31
lowerback 10.5957 1.9806 3.85842
upperback 16.6944 -0.879754 0.174776
thorax 12.3524 -1.52315 -2.2862
lowerneck -2.10345 7.33042 -2.06844
upperneck 6.8803 10.0667 -14.4868
head 3.04787 4.06865 -3.69709
rclavicle 3.77691e-015 3.57812e-015
rhumerus -21.2953 14.1356 -66.8081
rradius 47.4599
rwrist -0.865657
rhand -15.0313 21.0274
rfingers 7.12502
rthumb 11.1345 -8.65724
lclavicle 3.77691e-015 3.57812e-015
lhumerus -32.1823 -43.0621 73.3295
lradius 80.4724
lwrist 10.2465
lhand -50.1025 -26.8365
lfingers 7.12502
lthumb -22.6875 1.84982
rfemur 8.98182 -3.30833 16.1598
rtibia 46.0875
rfoot -23.587 20.808
rtoes -1.23904
lfemur -23.8469 10.8439 -19.0048
ltibia 43.5879
lfoot -1.38734 -7.32628
ltoes -8.50799
115
root 2.19267 17.8852 0.790979 -204.452 -0.506083 178.275
lowerback 10.5923 1.9818 3.77897
upperback 16.4611 -0.769855 0.101374
thorax 12.0629 -1.43775 -2.30451
lowerneck -2.21734 7.33136 -2.21231
upperneck 7.00508 10.0927 -14.3866
head 3.09432 4.06902 -3.63782
rclavicle 6.55989e-015 4.77083e-015
rhumerus -21.9474 14.0491 -67.3827
rradius 46.7609
rwrist -0.721045
rhand -15.0075 21.0892
rfingers 7.12502
rthumb 11.1575 -8.59414
lclavicle 6.55989e-015 4.77083e-015
lhumerus -32.8233 -43.212 73.4837
lradius 80.9831
lwrist 10.265
lhand -49.8411 -26.6065
lfingers 7.12502
lthumb -22.4365 2.11029
rfemur 7.86938 -3.31858 16.1791
rtibia 46.0324
rfoot -23.3749 20.5869
rtoes -1.66271
lfemur -23.2515 10.9039 -19.1331
ltibia 44.9358
lfoot -1.93895 -7.70253
ltoes -8.71196
116
root 2.18533 17.9343 0.84653 -203.527 -0.622256 178.183
lowerback 10.4939 1.98 3.62103
upperback 16.2048 -0.652108 0.000334442
thorax 11.7994 -1.34824 -2.30997
lowerneck -2.29138 7.31633 -2.2699
upperneck 7.14267 10.0949 -14.3377
head 3.14305 4.05843 -3.60992
rclavicle -6.65929e-015 -6.75868e-015
rhumerus -22.696 13.7761 -68.01
rradius 46.1506
rwrist -0.620586
rhand -14.9282 21.2041
rfingers 7.12502
rthumb 11.234 -8.47508
lclavicle -6.65929e-015 -6.75868e-015
lhumerus -33.4988 -43.4168 73.6937
lradius 81.3474
lwrist 10.1864
lhand -49.6519 -26.3247
lfingers 7.12502
lthumb -22.2549 2.41393
rfemur 6.68776 -3.3715 16.113
rtibia 45.9736
rfoot -23.1327 20.3824
rtoes -2.02626
lfemur -22.699 10.9786 -19.3426
ltibia 46.2502
lfoot -2.71463 -7.88864
ltoes -9.60734
117
root 2.17829 17.9806 0.899069 -202.597 -0.762312 178.082
lowerback 10.3462 1.97539 3.42564
upperback 15.9677 -0.549564 -0.0869855
thorax 11.5885 -1.2727 -2.28209
lowerneck -2.36914 7.2966 -2.36956
upperneck 7.22677 10.0854 -14.2973
head 3.17414 4.04362 -3.57904
rclavicle -1.30204e-014 -1.03368e-014
rhumerus -23.4655 13.3708 -68.5996
rradius 45.6643
rwrist -0.468571
rhand -14.7335 21.2974
rfingers 7.12502
rthumb 11.4218 -8.37152
lclavicle -1.30204e-014 -1.03368e-014
lhumerus -34.1492 -43.5581 73.9813
lradius 81.5681
lwrist 10.0726
lhand -49.5382 -26.1606
lfingers 7.12502
lthumb -22.1458 2.59096
rfemur 5.49802 -3.48812 15.9981
rtibia 45.9484
rfoot -22.9283 20.2267
rtoes -2.47597
lfemur -22.0997 11.057 -19.5637
ltibia 47.4993
lfoot -3.6749 -7.92558
ltoes -11.3659
118
root 2.17137 18.0246 0.951915 -201.613 -0.951439 178.032
lowerback 10.1285 1.9434 3.23038
upperback 15.7136 -0.48048 -0.13188
thorax 11.3973 -1.21235 -2.20809
lowerneck -2.44649 7.2675 -2.54973
upperneck 7.30817 10.0612 -14.2439
head 3.19902 4.01803 -3.53263
rclavicle -5.66536e-015 -6.36111e-015
rhumerus -24.2892 12.9181 -69.1274
rradius 45.3211
rwrist -0.415402
rhand -14.4317 21.3404
rfingers 7.12502
rthumb 11.7128 -8.31217
lclavicle -5.66536e-015 -6.36111e-015
lhumerus -34.837 -43.6229 74.4151
lradius 81.641
lwrist 9.74094
lhand -49.5429 -26.0553
lfingers 7.12502
lthumb -22.1503 2.69579
rfemur 4.23332 -3.66209 15.9308
rtibia 45.9712
rfoot -22.7342 20.062
rtoes -2.93526
lfemur -21.5306 11.1364 -19.7467
ltibia 48.6722
lfoot -4.69053 -7.80435
ltoes -13.8477
119
root 2.1655 18.0668 1.00655 -200.598 -1.1924 177.951
lowerback 9.86384 1.90773 3.0081
upperback 15.4762 -0.420171 -0.208185
thorax 11.2541 -1.15706 -2.15498
lowerneck -2.54573 7.23076 -2.71622
upperneck 7.29624 10.0225 -14.1555
head 3.19757 3.99689 -3.47832
rclavicle -4.77083e-015 -8.15017e-015
rhumerus -25.0977 12.2916 -69.6777
rradius 45.0451
rwrist -0.435039
rhand -14.0048 21.3705
rfingers 7.12502
rthumb 12.1245 -8.25822
lclavicle -4.77083e-015 -8.15017e-015
lhumerus -35.4539 -43.7239 74.7996
lradius 81.6058
lwrist 9.24218
lhand -49.6449 -25.7546
lfingers 7.12502
lthumb -22.2483 2.98478
rfemur 2.91575 -3.86264 15.8277
rtibia 46.0393
rfoot -22.5602 19.8831
rtoes -3.29024
lfemur -20.9126 11.2072 -19.9515
ltibia 49.7606
lfoot -5.79383 -7.58596
ltoes -14.261
120
root 2.15993 18.1073 1.06239 -199.537 -1.47097 177.839
lowerback 9.52706 1.86009 2.71514
upperback 15.2447 -0.380397 -0.269099
thorax 11.1587 -1.11951 -2.04716
lowerneck -2.70916 7.19093 -2.94875
upperneck 7.27367 9.9848 -14.073
head 3.20127 3.9707 -3.41353
rclavicle 4.37326e-015 -3.97569e-016
rhumerus -25.8743 11.6297 -70.1878
rradius 44.8012
rwrist -0.574531
rhand -13.5564 21.3805
rfingers 7.12502
rthumb 12.5568 -8.22213
lclavicle 4.37326e-015 -3.97569e-016
lhumerus -36.0845 -43.7945 75.2867
lradius 81.4843
lwrist 8.81153
lhand -49.7013 -25.397
lfingers 7.12502
lthumb -22.3024 3.33597
rfemur 1.53114 -4.05471 15.7063
rtibia 46.137
rfoot -22.3928 19.6773
rtoes -3.71716
lfemur -20.2578 11.2362 -20.1832
ltibia 50.7579
lfoot -7.03573 -7.18878
ltoes -14.4398
121
root 2.15459 18.1464 1.11807 -198.443 -1.78314 177.714
lowerback 9.1254 1.79735 2.39991
upperback 15.0136 -0.358796 -0.342642
thorax 11.1019 -1.09056 -1.94152
lowerneck -2.8791 7.15259 -3.15652
upperneck 7.24075 9.95022 -13.9836
head 3.20403 3.94882 -3.35021
rclavicle 3.97569e-015 -1.98785e-016
rhumerus -26.6392 10.9482 -70.7267
rradius 44.6
rwrist -0.711956
rhand -13.1343 21.2893
rfingers 7.12502
rthumb 12.9638 -8.28794
lclavicle 3.97569e-015 -1.98785e-016
lhumerus -36.7576 -43.8799 75.8264
lradius 81.293
lwrist 8.58663
lhand -49.7291 -25.2082
lfingers 7.12502
lthumb -22.329 3.52156
rfemur 0.112169 -4.23386 15.5887
rtibia 46.2352
rfoot -22.2474 19.3919
rtoes -4.3395
lfemur -19.6487 11.2636 -20.4302
ltibia 51.6616
lfoot -8.35395 -6.55106
ltoes -16.0439
